<?xml version="1.0" standalone="no"?>
<!DOCTYPE svg PUBLIC "-//W3C//DTD SVG 20010904//EN"
 "http://www.w3.org/TR/2001/REC-SVG-20010904/DTD/svg10.dtd">
<svg version="1.0" xmlns="http://www.w3.org/2000/svg"
 width="260.000000pt" height="260.000000pt" viewBox="0 0 260.000000 260.000000"
 preserveAspectRatio="xMidYMid meet">
<metadata>
Created by potrace 1.11, written by Peter Selinger 2001-2013
</metadata>
<g transform="translate(0.000000,260.000000) scale(0.100000,-0.100000)"
fill="#000000" stroke="none">
<path d="M0 1300 l0 -1300 1300 0 1300 0 0 1300 0 1300 -1300 0 -1300 0 0
-1300z m787 903 c78 -42 113 -129 93 -230 -21 -97 -93 -152 -212 -161 l-68 -5
0 -128 0 -129 -80 0 -80 0 0 341 0 341 153 -4 c133 -3 157 -6 194 -25z m353
-113 l0 -140 140 0 140 0 0 140 0 140 80 0 80 0 0 -340 0 -340 -80 0 -80 0 0
140 0 140 -140 0 -140 0 0 -140 0 -140 -80 0 -80 0 0 340 0 340 80 0 80 0 0
-140z m937 113 c78 -42 113 -129 93 -230 -21 -97 -93 -152 -212 -161 l-68 -5
0 -128 0 -129 -80 0 -80 0 0 341 0 341 153 -4 c133 -3 157 -6 194 -25z m-1217
-1183 l0 -60 -130 0 -130 0 0 -75 0 -75 130 0 130 0 0 -60 0 -60 -130 0 -130
0 0 -145 0 -145 -80 0 -80 0 0 340 0 340 210 0 210 0 0 -60z m272 -172 c3
-253 7 -272 61 -312 35 -26 113 -27 151 -3 56 37 61 61 64 315 l3 232 80 0 79
0 0 -242 c0 -134 -5 -259 -10 -279 -16 -59 -52 -102 -110 -133 -46 -25 -68
-30 -150 -34 -157 -7 -255 31 -303 121 -21 40 -22 55 -25 305 l-3 262 80 0 80
0 3 -232z m748 -108 l0 -340 -80 0 -80 0 0 340 0 340 80 0 80 0 0 -340z"/>
<path d="M600 2020 c0 -111 1 -112 65 -86 38 16 55 42 55 85 0 46 -19 79 -53
91 -66 22 -67 21 -67 -90z"/>
<path d="M1890 2020 c0 -111 1 -112 65 -86 38 16 55 42 55 85 0 46 -19 79 -53
91 -66 22 -67 21 -67 -90z"/>
</g>
</svg>
